<svg xmlns="http://www.w3.org/2000/svg" width="46.351" height="61.167" viewBox="0 0 46.351 61.167">
  <g id="takeaway-coffee-1-svgrepo-com" transform="translate(-62.009)">
    <path id="패스_98" data-name="패스 98" d="M104.9,7.068,104.5,0H65.866l-.4,7.068h-3.46V17.942h3.157l2.425,43.225h35.186L105.2,17.942h3.157V7.068ZM99.694,57.9H70.676l-2.3-41.05H102Zm5.4-43.225H65.271V10.33h3.281l.4-7.068h32.47l.4,7.068H105.1v4.35Z"/>
    <path id="패스_99" data-name="패스 99" d="M167.837,228.723a11.962,11.962,0,1,0-11.962-11.962A11.96,11.96,0,0,0,167.837,228.723Zm0-20.976a9.015,9.015,0,1,1-9.015,9.015A9.014,9.014,0,0,1,167.837,207.747Z" transform="translate(-82.652 -180.333)"/>
    <path id="패스_100" data-name="패스 100" d="M198.378,255.12a7.817,7.817,0,1,0-5.528-2.29A7.786,7.786,0,0,0,198.378,255.12Zm-1.307-9.4,1.307-2.647,1.307,2.647,2.92.424-2.113,2.06.5,2.909-2.612-1.372-2.612,1.372.5-2.909-2.113-2.06Z" transform="translate(-113.193 -210.874)"/>
  </g>
</svg>
