<svg xmlns="http://www.w3.org/2000/svg" width="64.638" height="61.168" viewBox="0 0 64.638 61.168">
  <g id="no-shouting-allowed-svgrepo-com" transform="translate(0 -12.216)">
    <path id="패스_101" data-name="패스 101" d="M68.98,114.467a1,1,0,0,0-1.368-.87L54.893,118.59a1,1,0,0,0-.635,1l.334,5.219a1,1,0,0,0,.757.909l.2.051L55.011,128l-5.779,1.2-9.1-4.475a7.694,7.694,0,0,0-1.371-.542,4.852,4.852,0,0,0-5.887,3.522l-2.5,9.939-3.462,8.048-6.061,6.52a2.911,2.911,0,0,0,4.264,3.964l6.4-6.889a2.9,2.9,0,0,0,.542-.831l1.737-4.038,6.411,5.3-2.223,6.757a2.911,2.911,0,1,0,5.53,1.82l2.844-8.644a2.912,2.912,0,0,0-.91-3.153l-6.111-5.056,2.45-9.418,5.773,2.837a2.913,2.913,0,0,0,1.878.237l8.754-1.823a2.909,2.909,0,0,0,.835-5.383l.285-1.184,9.285,2.336a1.01,1.01,0,0,0,.245.03h.005a1,1,0,0,0,1-1,1.058,1.058,0,0,0-.011-.15Z" transform="translate(-17.22 -86.918)"/>
    <path id="패스_102" data-name="패스 102" d="M381.88,99.152l7.246-4.221a1.172,1.172,0,1,0-1.18-2.025L380.7,97.126a1.172,1.172,0,1,0,1.179,2.025Z" transform="translate(-326.113 -69.089)"/>
    <path id="패스_103" data-name="패스 103" d="M393.451,188.041l-7.723-3.264a1.172,1.172,0,0,0-.913,2.159l7.723,3.264a1.172,1.172,0,1,0,.912-2.159Z" transform="translate(-329.529 -147.965)"/>
    <path id="패스_104" data-name="패스 104" d="M150.5,110.97a6.792,6.792,0,1,0-7.211-6.345A6.791,6.791,0,0,0,150.5,110.97Z" transform="translate(-122.923 -73.082)"/>
    <path id="패스_105" data-name="패스 105" d="M15.517,19.974a7.758,7.758,0,1,0-7.758,7.758A7.767,7.767,0,0,0,15.517,19.974Zm-3.1,0a4.627,4.627,0,0,1-.455,2.006L5.753,15.774a4.654,4.654,0,0,1,6.661,4.2Zm-9.31,0a4.626,4.626,0,0,1,.455-2.006l6.206,6.206a4.654,4.654,0,0,1-6.661-4.2Z"/>
  </g>
</svg>
