<svg xmlns="http://www.w3.org/2000/svg" width="75.835" height="44.9" viewBox="0 0 75.835 44.9">
  <g id="meeting-room-svgrepo-com" transform="translate(0 -80.04)">
    <path id="패스_106" data-name="패스 106" d="M73.718,94.259H69.551a8.036,8.036,0,0,0-3.236-5.574V87.377a7.346,7.346,0,0,0-7.337-7.337H55.791a7.346,7.346,0,0,0-7.337,7.337v5.607a7.982,7.982,0,0,0-.6-1.516V87.377a7.346,7.346,0,0,0-7.337-7.337H37.329a7.346,7.346,0,0,0-7.337,7.337v4.091a7.977,7.977,0,0,0-.6,1.516V87.377a7.346,7.346,0,0,0-7.337-7.337H18.868a7.346,7.346,0,0,0-7.338,7.337v1.308a8.036,8.036,0,0,0-3.236,5.573H2.117A2.119,2.119,0,0,0,0,96.376v23.411a1.932,1.932,0,1,0,3.865,0h0V102.9H8.242v6.373a1.933,1.933,0,0,0,1.932,1.932H11.53v1.038a1.931,1.931,0,0,0,0,3.861v6.9a1.932,1.932,0,1,0,3.865,0v-6.9h5.362v6.9a1.932,1.932,0,1,0,3.865,0v-6.9a1.931,1.931,0,0,0,0-3.861v-1.038h1.356a1.933,1.933,0,0,0,1.932-1.932V102.9h1.178v6.373a1.933,1.933,0,0,0,1.932,1.932h1.356v1.038a1.931,1.931,0,0,0,0,3.861v6.9a1.932,1.932,0,1,0,3.865,0v-6.9H41.6v6.9a1.932,1.932,0,1,0,3.865,0v-6.9a1.931,1.931,0,0,0,0-3.861v-1.038h1.356a1.933,1.933,0,0,0,1.932-1.932V102.9h1.178v6.373a1.933,1.933,0,0,0,1.932,1.932h1.356v1.038a1.931,1.931,0,0,0,0,3.861v6.9a1.932,1.932,0,1,0,3.865,0v-6.9H62.45v6.9a1.932,1.932,0,1,0,3.865,0v-6.9a1.931,1.931,0,0,0,0-3.861v-1.038h1.356a1.933,1.933,0,0,0,1.932-1.932V102.9H71.97v16.886h0a1.932,1.932,0,1,0,3.865,0V96.376A2.119,2.119,0,0,0,73.718,94.259ZM62.45,111.206v1.036H57.088v-1.036Zm3.288-3.865H53.8V95.163a4.175,4.175,0,0,1,4.17-4.17h3.6a4.175,4.175,0,0,1,4.17,4.17ZM37.329,83.9h3.186a3.476,3.476,0,0,1,3.472,3.472v.448a7.985,7.985,0,0,0-3.267-.7h-3.6a7.985,7.985,0,0,0-3.267.7v-.448A3.476,3.476,0,0,1,37.329,83.9Zm21.648,0a3.474,3.474,0,0,1,3.462,3.271,8.072,8.072,0,0,0-.872-.048h-3.6a8.009,8.009,0,0,0-5.651,2.329v-2.08A3.476,3.476,0,0,1,55.791,83.9ZM27.91,98.124h1.178v.912H27.91Zm20.846,0h1.178v.912H48.757ZM25.526,87.377v2.08a8.009,8.009,0,0,0-5.651-2.329h-3.6a8.076,8.076,0,0,0-.872.048A3.474,3.474,0,0,1,18.867,83.9h3.186A3.477,3.477,0,0,1,25.526,87.377ZM3.865,98.124H8.242v.912H3.865Zm16.892,13.082v1.036H15.395v-1.036Zm3.288-3.865H12.107V95.163a4.175,4.175,0,0,1,4.17-4.17h3.6a4.175,4.175,0,0,1,4.17,4.17ZM41.6,111.206v1.036H36.241v-1.036Zm3.288-3.865H32.953V95.163a4.175,4.175,0,0,1,4.17-4.17h3.6a4.175,4.175,0,0,1,4.17,4.17ZM69.6,98.124h2.366v.912H69.6Z"/>
  </g>
</svg>
