<svg xmlns="http://www.w3.org/2000/svg" width="76.808" height="73.302" viewBox="0 0 76.808 73.302">
  <g id="teacher-lecture-in-front-an-auditory-svgrepo-com" transform="translate(0 -0.727)">
    <g id="그룹_159" data-name="그룹 159" transform="translate(0 0.727)">
      <rect id="사각형_112" data-name="사각형 112" width="6.255" height="2.243" transform="translate(46.008 27.009)"/>
      <circle id="타원_20" data-name="타원 20" cx="3.581" cy="3.581" r="3.581" transform="translate(5.255 44.387)"/>
      <circle id="타원_21" data-name="타원 21" cx="3.581" cy="3.581" r="3.581" transform="translate(13.313 49.958)"/>
      <circle id="타원_22" data-name="타원 22" cx="3.581" cy="3.581" r="3.581" transform="translate(22.802 53.271)"/>
      <circle id="타원_23" data-name="타원 23" cx="3.581" cy="3.581" r="3.581" transform="translate(32.816 54.252)"/>
      <circle id="타원_24" data-name="타원 24" cx="3.581" cy="3.581" r="3.581" transform="translate(42.905 53.122)"/>
      <circle id="타원_25" data-name="타원 25" cx="3.581" cy="3.581" r="3.581" transform="translate(51.416 48.905)"/>
      <circle id="타원_26" data-name="타원 26" cx="3.581" cy="3.581" r="3.581" transform="translate(58.644 42.881)"/>
      <circle id="타원_27" data-name="타원 27" cx="3.872" cy="3.872" r="3.872" transform="translate(0 55.073)"/>
      <circle id="타원_28" data-name="타원 28" cx="3.872" cy="3.872" r="3.872" transform="translate(8.993 60.957)"/>
      <circle id="타원_29" data-name="타원 29" cx="3.87" cy="3.87" r="3.87" transform="translate(19.472 64.531)"/>
      <circle id="타원_30" data-name="타원 30" cx="3.87" cy="3.87" r="3.87" transform="translate(30.915 65.562)"/>
      <circle id="타원_31" data-name="타원 31" cx="3.872" cy="3.872" r="3.872" transform="translate(42.319 64.784)"/>
      <circle id="타원_32" data-name="타원 32" cx="3.872" cy="3.872" r="3.872" transform="translate(52.666 61.092)"/>
      <circle id="타원_33" data-name="타원 33" cx="3.87" cy="3.87" r="3.87" transform="translate(61.42 55.406)"/>
      <circle id="타원_34" data-name="타원 34" cx="3.87" cy="3.87" r="3.87" transform="translate(69.068 47.926)"/>
      <path id="패스_107" data-name="패스 107" d="M31.453,30.164c15.722,0,21.954-7.954,24.13-12.079v-1.4c-1.441,3.354-7.026,12.882-24.13,12.882-20.681,0-27.57-11.125-27.64-11.238l-.036.024v.973C5.664,21.788,13.4,30.164,31.453,30.164Z" transform="translate(5.324 21.76)"/>
      <path id="패스_108" data-name="패스 108" d="M33.49,35.9c19.127,0,28.474-10.626,31.074-14.19V20.66C63,23.029,53.913,35.289,33.49,35.289c-21.877,0-31.069-11.3-31.65-12.043v.925C4.088,26.691,13.678,35.9,33.49,35.9Z" transform="translate(2.594 27.37)"/>
      <circle id="타원_35" data-name="타원 35" cx="4.304" cy="4.304" r="4.304" transform="translate(29.503 17.441)"/>
      <path id="패스_109" data-name="패스 109" d="M21.765,34.61l.08,1.6h.226v1.7L23,42.642h-.87V44h3.287V42.642h-.263V37.916h1.082V42.6h-.366v1.354h3.438V42.6H28.4l.916-4.679v-1.7h.272l.219-3.6h18.06V8.464h-12.6L30.444,3.643A1.9,1.9,0,0,0,28.828.727a1.909,1.909,0,0,0-1.908,1.911,1.886,1.886,0,0,0,.222.877L22.189,8.464H5.78V32.611h15.8ZM27.632,4.122a1.89,1.89,0,0,0,2.277.087l4.258,4.258H23.29ZM7.334,31.056V10.018h38.98V31.056H29.9l.087-1.419,8.631-3.848-.976-1.879L31.09,27.129l-3.865.3-1.639,1.9L24,27.428l-2.648.345-7.258-3.566-1.017,2.072,8.3,4.077.065.7H7.334Z" transform="translate(8.147 -0.727)"/>
    </g>
  </g>
</svg>
