<svg xmlns="http://www.w3.org/2000/svg" width="64.702" height="60.388" viewBox="0 0 64.702 60.388">
  <g id="movie-play-svgrepo-com" transform="translate(-1 -1)">
    <g id="그룹_160" data-name="그룹 160" transform="translate(1 1)">
      <path id="패스_110" data-name="패스 110" d="M0,60.388H64.7L64.344,0H0ZM43.134,4.313h4.313V8.627H43.134V4.313Zm12.94,8.627V47.448H8.627V12.94ZM30.194,4.313h4.313V8.627H30.194V4.313Zm-12.94,0h4.313V8.627H17.254V4.313Zm-12.94,0H8.627V8.627H4.313V4.313ZM8.536,56.075H4.223V51.761H8.536v4.313Zm13.031,0H17.254V51.761h4.313v4.313Zm12.94,0H30.194V51.761h4.313v4.313Zm12.94,0H43.134V51.761h4.313v4.313Zm12.94,0H56.075V51.761h4.313v4.313Zm0-47.448H56.075V4.313h4.313V8.627Z" fill="#434343" fill-rule="evenodd"/>
      <path id="패스_111" data-name="패스 111" d="M6.013,21.671,6,5l17.034,8.692Z" transform="translate(19.881 16.567)" fill="#434343" fill-rule="evenodd"/>
    </g>
  </g>
</svg>
