<svg xmlns="http://www.w3.org/2000/svg" width="67.774" height="73.001" viewBox="0 0 67.774 73.001">
  <g id="job-post-svgrepo-com" transform="translate(-35.02)">
    <g id="그룹_162" data-name="그룹 162" transform="translate(35.02)">
      <path id="패스_112" data-name="패스 112" d="M567.064,478.469c0-1.739-1.329-2.557-3.835-2.557h-2.505v5.369h2.505C565.683,481.281,567.064,480.36,567.064,478.469Z" transform="translate(-521.491 -440.396)"/>
      <path id="패스_113" data-name="패스 113" d="M323.514,397.295c2.633,0,4.321-2.4,4.321-6.161,0-3.733-1.687-6.008-4.321-6.008s-4.321,2.275-4.321,6.008C319.193,394.891,320.88,397.295,323.514,397.295Z" transform="translate(-297.986 -356.384)"/>
      <path id="패스_114" data-name="패스 114" d="M566.168,387.641c0-1.534-1.1-2.173-3.273-2.173h-2.173V390.1h2.122C565.171,390.1,566.168,389.2,566.168,387.641Z" transform="translate(-521.49 -356.701)"/>
      <g id="그룹_161" data-name="그룹 161">
        <path id="패스_115" data-name="패스 115" d="M35.02,131.861V186.4a4.478,4.478,0,0,0,4.478,4.478H79.45V172.848a5.314,5.314,0,0,1,5.314-5.314h18.029V131.861a4.478,4.478,0,0,0-4.478-4.478H88.6a7.553,7.553,0,0,1-9.781,2.523l-7.287,4.84a.557.557,0,0,1-.773-.773l4.377-6.59H39.5A4.478,4.478,0,0,0,35.02,131.861Zm56.388,22.325-2.3-1c-1.636-.69-3.375-1.994-3.375-4.449,0-2.659,2.352-4.7,5.625-4.7a7.38,7.38,0,0,1,5.139,2.122l-1.508,1.892a5.449,5.449,0,0,0-3.63-1.432c-1.585,0-2.633.741-2.633,1.969,0,1.3,1.278,1.79,2.659,2.352l2.275.946c1.969.844,3.375,2.1,3.375,4.525,0,2.71-2.25,4.96-6.008,4.96a8.662,8.662,0,0,1-6.034-2.455l1.739-2.02a6.65,6.65,0,0,0,4.346,1.892c1.892,0,2.915-.844,2.915-2.147C93.99,155.259,92.916,154.825,91.408,154.186Zm-20.121-9.843H76.63c3.452,0,5.983,1.048,5.983,4.116a3.655,3.655,0,0,1-2.863,3.63v.1c2.4.409,3.733,1.713,3.733,3.963,0,3.349-2.736,4.909-6.417,4.909H71.286V144.342Zm-10.738-.307c4.372,0,7.389,3.2,7.389,8.59,0,5.42-3.017,8.744-7.389,8.744-4.346,0-7.363-3.324-7.363-8.744C53.185,147.231,56.2,144.036,60.548,144.036ZM41.961,157.023a2.923,2.923,0,0,0,2.608,1.764c1.56,0,2.352-.844,2.352-3.221V144.342h2.966v11.479c0,3.043-1.483,5.548-4.986,5.548a5.286,5.286,0,0,1-4.986-2.838Z" transform="translate(-35.02 -117.877)"/>
        <path id="패스_116" data-name="패스 116" d="M673.821,706.609a2.239,2.239,0,0,0-2.239,2.239v18.029l20.269-20.268h-18.03Z" transform="translate(-624.077 -653.876)"/>
        <path id="패스_117" data-name="패스 117" d="M599.3,9.506a5.323,5.323,0,1,0-1.9-2.988A5.3,5.3,0,0,0,599.3,9.506Z" transform="translate(-555.301)"/>
      </g>
    </g>
  </g>
</svg>
