<svg xmlns="http://www.w3.org/2000/svg" width="77.739" height="53.184" viewBox="0 0 77.739 53.184">
  <g id="meet-consider-deliberate-about-debate-svgrepo-com" transform="translate(-6.531 -37.84)">
    <g id="그룹_163" data-name="그룹 163" transform="translate(6.531 37.84)">
      <circle id="타원_36" data-name="타원 36" cx="5.294" cy="5.294" r="5.294" transform="matrix(0.966, -0.259, 0.259, 0.966, 8.217, 2.74)"/>
      <path id="패스_118" data-name="패스 118" d="M27.483,86.619H20.424a7.085,7.085,0,0,1-6.176-5.294L9.836,64.9a1.679,1.679,0,1,0-3.258.814l4.344,16.425a10.341,10.341,0,0,0,9.163,7.737,6.3,6.3,0,0,0,.882.068h6.448a1.724,1.724,0,0,0,1.7-1.7A1.568,1.568,0,0,0,27.483,86.619Z" transform="translate(-6.531 -46.126)"/>
      <path id="패스_119" data-name="패스 119" d="M37.7,75.56H28.873a56.437,56.437,0,0,0-1.561-9.977c-.068-.271-.271-.95-.271-1.018a8.97,8.97,0,0,0-9.5-6.584s-.543.068-.679.068a3.005,3.005,0,0,0-2.1,3.665l4.547,16.9a4.563,4.563,0,0,0,4.14,3.461H34.37V94.157a3.326,3.326,0,1,0,6.651,0V78.886A3.04,3.04,0,0,0,40,76.578,3.146,3.146,0,0,0,37.7,75.56Z" transform="translate(-9.143 -44.298)"/>
    </g>
    <g id="그룹_164" data-name="그룹 164" transform="translate(52.392 37.883)">
      <circle id="타원_37" data-name="타원 37" cx="5.294" cy="5.294" r="5.294" transform="matrix(0.259, -0.966, 0.966, 0.259, 12.043, 10.227)"/>
      <path id="패스_120" data-name="패스 120" d="M89.429,86.619h7.059a7.085,7.085,0,0,0,6.176-5.294L107.076,64.9a1.679,1.679,0,1,1,3.258.814L105.99,82.139a10.341,10.341,0,0,1-9.163,7.737,6.3,6.3,0,0,1-.882.068H89.5a1.724,1.724,0,0,1-1.7-1.7A1.608,1.608,0,0,1,89.429,86.619Z" transform="translate(-78.502 -46.169)"/>
      <path id="패스_121" data-name="패스 121" d="M77.426,75.56h8.823a56.437,56.437,0,0,1,1.561-9.977c.068-.271.271-.95.271-1.018a8.97,8.97,0,0,1,9.5-6.584s.543.068.679.068a3.005,3.005,0,0,1,2.1,3.665l-4.615,16.9a4.563,4.563,0,0,1-4.14,3.461H80.751V94.157a3.288,3.288,0,0,1-3.326,3.326A3.248,3.248,0,0,1,74.1,94.157V78.886a3.04,3.04,0,0,1,1.018-2.308A3.146,3.146,0,0,1,77.426,75.56Z" transform="translate(-74.1 -44.34)"/>
    </g>
    <rect id="사각형_113" data-name="사각형 113" width="34.343" height="4.072" transform="translate(28.433 60.211)"/>
  </g>
</svg>
