<svg xmlns="http://www.w3.org/2000/svg" width="71.823" height="53.867" viewBox="0 0 71.823 53.867">
  <g id="photo-camera-svgrepo-com" transform="translate(0 -63.999)">
    <path id="패스_148" data-name="패스 148" d="M185.436,64H161.495a1.5,1.5,0,0,0,0,2.993h23.942a1.5,1.5,0,1,0,0-2.993Z" transform="translate(-137.555)" fill="#656d78"/>
    <path id="패스_149" data-name="패스 149" d="M94.845,119.326c0,3.305-2.681,4.489-5.986,4.489H37.984c-3.305,0-5.984-1.184-5.984-4.489V80.649a5.984,5.984,0,0,1,5.984-5.986H88.859a5.986,5.986,0,0,1,5.986,5.986Z" transform="translate(-27.511 -9.168)" fill="#ccd1d9"/>
    <path id="패스_150" data-name="패스 150" d="M69.349,288H6.5l-4.16,5.048,71.159-.006Z" transform="translate(-2.015 -192.576)" fill="#e6e9ed"/>
    <path id="패스_151" data-name="패스 151" d="M70.326,320H1.495A1.5,1.5,0,0,0,0,321.493V331.97a5.983,5.983,0,0,0,5.984,5.984H65.837a5.985,5.985,0,0,0,5.986-5.984V321.493A1.5,1.5,0,0,0,70.326,320Z" transform="translate(0 -220.088)" fill="#656d78"/>
    <path id="패스_152" data-name="패스 152" d="M102.509,367.143a1.5,1.5,0,0,1-1.5,1.5H44.153a1.5,1.5,0,0,1-1.5-1.5v-2.99a1.5,1.5,0,0,1,1.5-1.5h56.859a1.5,1.5,0,0,1,1.5,1.5v2.99Z" transform="translate(-36.672 -256.76)" fill="#434a54"/>
    <path id="패스_153" data-name="패스 153" d="M191.8,127.612a10.474,10.474,0,1,1,10.473-10.474A10.486,10.486,0,0,1,191.8,127.612Z" transform="translate(-155.891 -36.679)" fill="#5d9cec"/>
    <path id="패스_154" data-name="패스 154" d="M242.243,106.663a10.448,10.448,0,0,0-2.244.243,10.475,10.475,0,0,1,0,20.462,10.474,10.474,0,1,0,2.244-20.705Z" transform="translate(-206.332 -36.679)" fill="#fff" opacity="0.1"/>
    <path id="패스_155" data-name="패스 155" d="M182.628,96A11.97,11.97,0,1,0,194.6,107.97,11.972,11.972,0,0,0,182.628,96Zm0,20.949a8.978,8.978,0,1,1,8.978-8.978A8.987,8.987,0,0,1,182.628,116.948Z" transform="translate(-146.716 -27.511)" fill="#4a89dc"/>
    <rect id="사각형_149" data-name="사각형 149" width="8.978" height="8.978" transform="translate(52.37 69.985)" fill="#f5f7fa"/>
    <path id="패스_156" data-name="패스 156" d="M373.128,96H364.15a1.5,1.5,0,0,0-1.5,1.5v8.978a1.5,1.5,0,0,0,1.5,1.5h8.978a1.5,1.5,0,0,0,1.5-1.5V97.495A1.5,1.5,0,0,0,373.128,96Zm-1.5,8.978h-5.984V98.992h5.984Z" transform="translate(-311.78 -27.511)" fill="#e6e9ed"/>
    <path id="패스_157" data-name="패스 157" d="M376.317,208.648a2.993,2.993,0,1,1,2.994-2.993A3,3,0,0,1,376.317,208.648Z" transform="translate(-320.955 -119.211)" fill="#656d78"/>
    <path id="패스_158" data-name="패스 158" d="M367.142,192a4.489,4.489,0,1,0,4.489,4.489A4.489,4.489,0,0,0,367.142,192Zm0,5.985a1.5,1.5,0,1,1,1.5-1.5A1.5,1.5,0,0,1,367.142,197.983Z" transform="translate(-311.78 -110.043)" fill="#434a54"/>
    <path id="패스_159" data-name="패스 159" d="M83.634,196.487A4.489,4.489,0,1,1,79.145,192,4.488,4.488,0,0,1,83.634,196.487Z" transform="translate(-64.183 -110.043)" fill="#ed5564"/>
    <path id="패스_160" data-name="패스 160" d="M75.97,133.984a1.5,1.5,0,0,1-1.5,1.5H65.495a1.5,1.5,0,0,1-1.495-1.5v-4.489a1.5,1.5,0,0,1,1.495-1.5h8.978a1.5,1.5,0,0,1,1.5,1.5Z" transform="translate(-55.022 -55.022)" fill="#434a54"/>
  </g>
</svg>
