<svg id="web-page-browser-window-svgrepo-com" xmlns="http://www.w3.org/2000/svg" width="53.486" height="55.157" viewBox="0 0 53.486 55.157">
  <path id="패스_139" data-name="패스 139" d="M53.486,1.671V55.157H.024V6.811H0V2.043H.048A1.454,1.454,0,0,1,0,1.671,1.671,1.671,0,0,1,1.671,0H51.815A1.671,1.671,0,0,1,53.486,1.671Z" transform="translate(0)" fill="#89929f"/>
  <rect id="사각형_123" data-name="사각형 123" width="51.552" height="47.501" transform="translate(0.967 6.549)" fill="#fff"/>
  <rect id="사각형_124" data-name="사각형 124" width="51.552" height="2.169" transform="translate(0.967 6.549)" fill="#0d0d0d" opacity="0.06"/>
  <g id="그룹_185" data-name="그룹 185" transform="translate(2.646 2.052)">
    <ellipse id="타원_39" data-name="타원 39" cx="1.268" cy="1.35" rx="1.268" ry="1.35" transform="translate(9.228)" fill="#8bc66f"/>
    <ellipse id="타원_40" data-name="타원 40" cx="1.268" cy="1.35" rx="1.268" ry="1.35" transform="translate(4.614)" fill="#f4db6d"/>
    <ellipse id="타원_41" data-name="타원 41" cx="1.268" cy="1.35" rx="1.268" ry="1.35" fill="#e06276"/>
  </g>
  <g id="그룹_190" data-name="그룹 190" transform="translate(14.306 38.923)" opacity="0.5">
    <g id="그룹_187" data-name="그룹 187">
      <rect id="사각형_125" data-name="사각형 125" width="6.771" height="5.653" fill="#adbfbc"/>
      <g id="그룹_186" data-name="그룹 186" transform="translate(7.846 0.23)">
        <rect id="사각형_126" data-name="사각형 126" width="4.525" height="0.779" transform="translate(0 4.25)" fill="#adbfbc"/>
        <rect id="사각형_127" data-name="사각형 127" width="9.346" height="0.814" fill="#adbfbc"/>
        <rect id="사각형_128" data-name="사각형 128" width="9.346" height="0.814" transform="translate(0 2.116)" fill="#adbfbc"/>
      </g>
    </g>
    <g id="그룹_189" data-name="그룹 189">
      <rect id="사각형_129" data-name="사각형 129" width="6.771" height="5.653" fill="#899c99" opacity="0.5"/>
      <g id="그룹_188" data-name="그룹 188" transform="translate(7.846 0.23)" opacity="0.5">
        <rect id="사각형_130" data-name="사각형 130" width="4.525" height="0.779" transform="translate(0 4.25)" fill="#899c99"/>
        <rect id="사각형_131" data-name="사각형 131" width="9.346" height="0.814" fill="#899c99"/>
        <rect id="사각형_132" data-name="사각형 132" width="9.346" height="0.814" transform="translate(0 2.116)" fill="#899c99"/>
      </g>
    </g>
  </g>
  <rect id="사각형_133" data-name="사각형 133" width="9.346" height="0.814" transform="translate(22.07 49.94)" fill="#adbfbc" opacity="0.5"/>
  <g id="그룹_191" data-name="그룹 191" transform="translate(3.321 20.089)">
    <rect id="사각형_134" data-name="사각형 134" width="9.56" height="2.664" fill="#adbfbc" opacity="0.5"/>
    <rect id="사각형_135" data-name="사각형 135" width="9.56" height="2.664" transform="translate(0 4.389)" fill="#adbfbc" opacity="0.5"/>
    <rect id="사각형_136" data-name="사각형 136" width="9.56" height="2.664" transform="translate(0 8.777)" fill="#adbfbc" opacity="0.5"/>
    <rect id="사각형_137" data-name="사각형 137" width="9.56" height="2.664" transform="translate(0 13.166)" fill="#adbfbc" opacity="0.5"/>
  </g>
  <rect id="사각형_138" data-name="사각형 138" width="47.249" height="2.258" transform="translate(3.118 16.062)" fill="#adbfbc" opacity="0.5"/>
  <rect id="사각형_139" data-name="사각형 139" width="47.249" height="0.476" transform="translate(3.118 47.069)" fill="#adbfbc" opacity="0.5"/>
  <g id="그룹_196" data-name="그룹 196" transform="translate(33.346 38.849)" opacity="0.5">
    <g id="그룹_193" data-name="그룹 193">
      <rect id="사각형_140" data-name="사각형 140" width="6.771" height="5.653" fill="#adbfbc"/>
      <g id="그룹_192" data-name="그룹 192" transform="translate(7.846 0.23)">
        <rect id="사각형_141" data-name="사각형 141" width="4.525" height="0.779" transform="translate(0 4.25)" fill="#adbfbc"/>
        <rect id="사각형_142" data-name="사각형 142" width="9.346" height="0.814" fill="#adbfbc"/>
        <rect id="사각형_143" data-name="사각형 143" width="9.346" height="0.814" transform="translate(0 2.116)" fill="#adbfbc"/>
      </g>
    </g>
    <g id="그룹_195" data-name="그룹 195">
      <rect id="사각형_144" data-name="사각형 144" width="6.771" height="5.653" fill="#899c99" opacity="0.5"/>
      <g id="그룹_194" data-name="그룹 194" transform="translate(7.846 0.23)" opacity="0.5">
        <rect id="사각형_145" data-name="사각형 145" width="4.525" height="0.779" transform="translate(0 4.25)" fill="#899c99"/>
        <rect id="사각형_146" data-name="사각형 146" width="9.346" height="0.814" fill="#899c99"/>
        <rect id="사각형_147" data-name="사각형 147" width="9.346" height="0.814" transform="translate(0 2.116)" fill="#899c99"/>
      </g>
    </g>
  </g>
  <path id="패스_140" data-name="패스 140" d="M391.165,94.765a1.91,1.91,0,0,0-.438-.839,1.889,1.889,0,0,0-.811-.532c-.033-.011-.067-.022-.1-.031a1.9,1.9,0,0,0-1.8.446l1.4,1.416,0,0h0l0,0,0,.009h0l0-.009-1.4-1.416a1.9,1.9,0,0,0,.014,2.789l.007.006a1.891,1.891,0,0,0,.777.427l.1.025a1.891,1.891,0,0,0,.969-.045l.008,0a1.907,1.907,0,0,0,.8-.5h0a1.9,1.9,0,0,0,.477-1.745Z" transform="translate(-345.676 -83.245)" fill="#7bcad4"/>
  <path id="패스_141" data-name="패스 141" d="M431.451,94.765a1.909,1.909,0,0,0-.438-.839,1.889,1.889,0,0,0-.811-.532c-.033-.011-.067-.022-.1-.031a1.9,1.9,0,0,0-1.8.446l1.4,1.416,0,0h0l0,0,0,.009h0l0-.009-1.4-1.416a1.9,1.9,0,0,0,.014,2.789l.007.006a1.891,1.891,0,0,0,.777.427l.1.025a1.891,1.891,0,0,0,.969-.045l.008,0a1.907,1.907,0,0,0,.8-.5h0a1.9,1.9,0,0,0,.477-1.745Z" transform="translate(-381.622 -83.245)" fill="#4f9fd8"/>
  <g id="그룹_197" data-name="그룹 197" transform="translate(20.138 11.119)">
    <path id="패스_142" data-name="패스 142" d="M187.546,106.544V103.5h-.61v3.524h2.534v-.483Z" transform="translate(-186.936 -103.471)" fill="#89929f"/>
    <path id="패스_143" data-name="패스 143" d="M218.325,104.509a2.484,2.484,0,0,0-.048-.372,1.146,1.146,0,0,0-.127-.3.979.979,0,0,0-.222-.269,1.452,1.452,0,0,0-.451-.269,1.987,1.987,0,0,0-1.164,0,1.452,1.452,0,0,0-.451.269.98.98,0,0,0-.222.269,1.145,1.145,0,0,0-.127.3,2.516,2.516,0,0,0-.048.372c0,.143-.008.309-.008.491s.008.348.008.491a2.523,2.523,0,0,0,.048.372,1.337,1.337,0,0,0,.127.309.951.951,0,0,0,.222.261,1.454,1.454,0,0,0,.451.269,1.987,1.987,0,0,0,1.164,0,1.452,1.452,0,0,0,.451-.269.953.953,0,0,0,.222-.261,1.334,1.334,0,0,0,.127-.309,2.491,2.491,0,0,0,.048-.372c0-.143.008-.309.008-.491S218.325,104.651,218.325,104.509Zm-.61.935a1.593,1.593,0,0,1-.032.3.646.646,0,0,1-.071.2.705.705,0,0,1-.119.15.9.9,0,0,1-1.2,0,.7.7,0,0,1-.119-.15.623.623,0,0,1-.071-.206,1.524,1.524,0,0,1-.032-.3c-.008-.111-.008-.261-.008-.436s0-.325.008-.444a1.438,1.438,0,0,1,.032-.293.623.623,0,0,1,.071-.206.756.756,0,0,1,.119-.159.944.944,0,0,1,1.2,0,.709.709,0,0,1,.119.151.694.694,0,0,1,.071.206,1.6,1.6,0,0,1,.032.3c.008.119.008.269.008.444S217.723,105.324,217.715,105.443Z" transform="translate(-212.385 -103.21)" fill="#89929f"/>
    <path id="패스_144" data-name="패스 144" d="M250.559,104.856v.459h.855v.19a.9.9,0,0,1-.048.309.6.6,0,0,1-.15.253.739.739,0,0,1-.293.182.93.93,0,0,1-.364.063.855.855,0,0,1-.594-.214.593.593,0,0,1-.119-.159.932.932,0,0,1-.079-.2,2.724,2.724,0,0,1-.032-.3c-.008-.119-.008-.269-.008-.444s0-.325.008-.444a2.372,2.372,0,0,1,.032-.293.859.859,0,0,1,.079-.206.756.756,0,0,1,.119-.159.855.855,0,0,1,.594-.214.912.912,0,0,1,.546.158.809.809,0,0,1,.293.451h.61a1.664,1.664,0,0,0-.15-.42,1.378,1.378,0,0,0-.3-.348,1.332,1.332,0,0,0-.436-.23,1.58,1.58,0,0,0-.562-.087,1.9,1.9,0,0,0-.586.087,1.332,1.332,0,0,0-.444.269,1.019,1.019,0,0,0-.23.269.92.92,0,0,0-.119.3,1.366,1.366,0,0,0-.048.372c-.008.143-.008.309-.008.491s0,.348.008.491a1.369,1.369,0,0,0,.048.372,1.044,1.044,0,0,0,.119.309.99.99,0,0,0,.23.261,1.332,1.332,0,0,0,.444.269,1.687,1.687,0,0,0,.586.087,1.8,1.8,0,0,0,.594-.095,1.44,1.44,0,0,0,.507-.3,1.176,1.176,0,0,0,.277-.42,1.725,1.725,0,0,0,.079-.578v-.538Z" transform="translate(-242.425 -103.209)" fill="#89929f"/>
    <path id="패스_145" data-name="패스 145" d="M285.734,104.509a2.5,2.5,0,0,0-.048-.372,1.491,1.491,0,0,0-.119-.3,1.194,1.194,0,0,0-.23-.269,1.455,1.455,0,0,0-.451-.269,1.987,1.987,0,0,0-1.164,0,1.455,1.455,0,0,0-.451.269.98.98,0,0,0-.222.269,1.145,1.145,0,0,0-.127.3,2.51,2.51,0,0,0-.048.372c0,.143-.008.309-.008.491s.008.348.008.491a2.517,2.517,0,0,0,.048.372,1.339,1.339,0,0,0,.127.309.951.951,0,0,0,.222.261,1.455,1.455,0,0,0,.451.269,1.988,1.988,0,0,0,1.164,0,1.455,1.455,0,0,0,.451-.269,1.161,1.161,0,0,0,.23-.261,1.8,1.8,0,0,0,.119-.309,2.509,2.509,0,0,0,.048-.372c0-.143.008-.309.008-.491S285.734,104.651,285.734,104.509Zm-.61.935a1.6,1.6,0,0,1-.032.3.644.644,0,0,1-.071.2.7.7,0,0,1-.119.15.895.895,0,0,1-1.2,0,.706.706,0,0,1-.119-.15.623.623,0,0,1-.071-.206,1.523,1.523,0,0,1-.032-.3c-.008-.111-.008-.261-.008-.436s0-.325.008-.444a1.436,1.436,0,0,1,.032-.293.623.623,0,0,1,.071-.206.756.756,0,0,1,.119-.159.943.943,0,0,1,1.2,0,.709.709,0,0,1,.119.151.7.7,0,0,1,.071.206,1.6,1.6,0,0,1,.032.3c.008.119.008.269.008.444S285.132,105.324,285.124,105.443Z" transform="translate(-272.532 -103.21)" fill="#89929f"/>
  </g>
  <g id="그룹_200" data-name="그룹 200" transform="translate(14.273 20.13)">
    <rect id="사각형_148" data-name="사각형 148" width="36.095" height="17.473" fill="#fbdcb4"/>
    <ellipse id="타원_42" data-name="타원 42" cx="2.595" cy="2.534" rx="2.595" ry="2.534" transform="translate(13.775 0.852)" fill="#eef4d4" opacity="0.8"/>
    <g id="그룹_198" data-name="그룹 198" transform="translate(0.032 7.549)" opacity="0.5">
      <path id="패스_146" data-name="패스 146" d="M153.491,266.855h-20.7l7.358-8.5a3.852,3.852,0,0,1,5.982,0l2.793,3.23Z" transform="translate(-132.793 -256.93)" fill="#df6d65"/>
    </g>
    <g id="그룹_199" data-name="그룹 199" transform="translate(11.905 3.74)" opacity="0.5">
      <path id="패스_147" data-name="패스 147" d="M267.19,231.5V235.3H243l4.582-5.269,6.095-7a3.966,3.966,0,0,1,6.153,0Z" transform="translate(-243 -221.57)" fill="#df6d65"/>
    </g>
  </g>
</svg>
