<svg xmlns="http://www.w3.org/2000/svg" width="62.853" height="58.329" viewBox="0 0 62.853 58.329">
  <g id="Layer_2" transform="translate(-4.262 -7.555)">
    <g id="그룹_184" data-name="그룹 184" transform="translate(4.262 7.555)">
      <g id="그룹_183" data-name="그룹 183">
        <path id="패스_125" data-name="패스 125" d="M35.832,7.556C5.541,7.4-8.5,39.376,19.043,53.583c-.484,1.669-3.111,10.74-3.216,11.452a.72.72,0,0,0,1.038.785c.995-.139,11.53-7.54,13.353-8.825C73.9,62.224,82.5,9.562,35.832,7.556Z" transform="translate(-4.262 -7.555)" fill="#3d1d1c"/>
        <path id="패스_126" data-name="패스 126" d="M23.672,47.385a1.826,1.826,0,0,1-3.646,0V36.554H17.181a1.785,1.785,0,0,1,0-3.57h9.336a1.785,1.785,0,0,1,0,3.57H23.672Z" transform="translate(-7.751 -15.512)" fill="#ffe812"/>
        <path id="패스_127" data-name="패스 127" d="M43.633,48.865c-.818.432-2.4.326-2.676-.554l-.9-2.364H34.494l-.9,2.365c-.273.879-1.857.985-2.675.552-.5-.232-.986-.869-.432-2.589L34.845,34.8a2.553,2.553,0,0,1,4.86,0l4.359,11.473C44.618,48,44.135,48.634,43.633,48.865Z" transform="translate(-12.39 -15.525)" fill="#ffe812"/>
        <path id="패스_128" data-name="패스 128" d="M59.684,48.87H53.834A1.712,1.712,0,0,1,52.087,47.2V34.816a1.862,1.862,0,0,1,3.722,0V45.527h3.875A1.672,1.672,0,1,1,59.684,48.87Z" transform="translate(-19.226 -15.521)" fill="#ffe812"/>
        <path id="패스_129" data-name="패스 129" d="M78.534,47.5a1.835,1.835,0,0,1-3.26.846L71,42.677l-.633.633v3.978a1.824,1.824,0,0,1-3.647,0V34.816a1.823,1.823,0,0,1,3.646,0v3.919l5.087-5.087a1.708,1.708,0,0,1,2.4,2.4L73.7,40.2l4.488,5.946A1.812,1.812,0,0,1,78.534,47.5Z" transform="translate(-23.804 -15.521)" fill="#ffe812"/>
        <path id="패스_130" data-name="패스 130" d="M37.829,44.775h3.642L39.65,39.6Z" transform="translate(-14.765 -17.582)" fill="#3d1d1c"/>
      </g>
    </g>
  </g>
</svg>
