<svg xmlns="http://www.w3.org/2000/svg" width="57.386" height="57.272" viewBox="0 0 57.386 57.272">
  <g id="house-svgrepo-com" transform="translate(0 -2.042)">
    <path id="패스_131" data-name="패스 131" d="M118.416,124.608,96,147.023v27.988h46.626V148.816Z" transform="translate(-90.62 -115.698)" fill="#eaeaea"/>
    <path id="패스_132" data-name="패스 132" d="M256,672h12.553v19.726H256Z" transform="translate(-241.654 -632.413)" fill="#434854"/>
    <path id="패스_133" data-name="패스 133" d="M544,519.173h5.38v5.38H544Zm7.173,0h5.38v5.38h-5.38Zm0-7.173h5.38v5.38h-5.38ZM544,512h5.38v5.38H544Z" transform="translate(-513.514 -481.38)" fill="#469fcc"/>
    <path id="패스_134" data-name="패스 134" d="M544,512h5.38v1.793H544Zm7.173,0h5.38v1.793h-5.38ZM544,519.173h5.38v1.793H544Zm7.173,0h5.38v1.793h-5.38Z" transform="translate(-513.514 -481.38)"/>
    <path id="패스_135" data-name="패스 135" d="M118.416,64,96,87.313v5.38l22.416-22.416,24.21,24.21v-5.38Z" transform="translate(-90.62 -58.486)"/>
    <path id="패스_136" data-name="패스 136" d="M58.673,30.249,32.259,3.835,30.991,2.567a1.792,1.792,0,0,0-2.536,0L27.188,3.835,2.567,28.456a1.792,1.792,0,0,0,0,2.536l1.268,1.268a1.792,1.792,0,0,0,2.536,0L29.723,8.91,54.867,34.054a1.792,1.792,0,0,0,2.536,0l1.268-1.268A1.8,1.8,0,0,0,58.673,30.249Z" transform="translate(-1.927)" fill="#ef4d4d"/>
    <path id="패스_137" data-name="패스 137" d="M13.351,842.76a7.1,7.1,0,0,0,1-3.587,7.173,7.173,0,1,0-14.346,0,7.1,7.1,0,0,0,1,3.587ZM50.213,832a7.159,7.159,0,0,0-6.513,4.205,5.315,5.315,0,0,0-2.453-.619,5.38,5.38,0,0,0-5.38,5.38,5.311,5.311,0,0,0,.33,1.793h20.2A7.129,7.129,0,0,0,50.213,832Z" transform="translate(0 -783.447)" fill="#3aad73"/>
    <path id="패스_138" data-name="패스 138" d="M647.833,896.619A5.315,5.315,0,0,0,645.38,896a5.38,5.38,0,0,0-5.38,5.38,5.311,5.311,0,0,0,.33,1.793h7.839a6.98,6.98,0,0,1-.335-6.555Z" transform="translate(-604.134 -843.86)"/>
  </g>
</svg>
