<svg id="ticket-svgrepo-com" xmlns="http://www.w3.org/2000/svg" width="64.994" height="64.994" viewBox="0 0 64.994 64.994">
  <path id="패스_165" data-name="패스 165" d="M63.044,0h-3.25a1.95,1.95,0,0,1-1.95,1.95A1.95,1.95,0,0,1,55.895,0h-3.25A1.95,1.95,0,0,1,50.7,1.95,1.95,1.95,0,0,1,48.746,0H45.5a1.95,1.95,0,0,1-1.95,1.95A1.95,1.95,0,0,1,41.6,0h-3.25a5.849,5.849,0,0,1-11.7,0H23.4a1.95,1.95,0,0,1-1.95,1.95A1.95,1.95,0,0,1,19.5,0h-3.25A1.95,1.95,0,0,1,14.3,1.95,1.95,1.95,0,0,1,12.349,0H9.1a1.95,1.95,0,0,1-1.95,1.95A1.95,1.95,0,0,1,5.2,0H1.95A1.95,1.95,0,0,1,0,1.95v49.4A1.95,1.95,0,0,1,1.95,53.3H5.2a1.95,1.95,0,0,1,3.9,0h3.25a1.95,1.95,0,0,1,3.9,0H19.5a1.95,1.95,0,0,1,3.9,0h3.25a5.849,5.849,0,0,1,11.7,0H41.6a1.95,1.95,0,0,1,3.9,0h3.25a1.95,1.95,0,0,1,3.9,0h3.25a1.95,1.95,0,0,1,3.9,0h3.25a1.95,1.95,0,0,1,1.95-1.95V1.95A1.95,1.95,0,0,1,63.044,0Z" fill="#ebeced"/>
  <path id="패스_166" data-name="패스 166" d="M63.044,0h-3.25a1.95,1.95,0,0,1-1.95,1.95A1.95,1.95,0,0,1,55.895,0h-3.25A1.95,1.95,0,0,1,50.7,1.95,1.95,1.95,0,0,1,48.746,0H45.5a1.95,1.95,0,0,1-1.95,1.95A1.95,1.95,0,0,1,41.6,0h-3.25a5.849,5.849,0,0,1-11.7,0H23.4a1.95,1.95,0,0,1-1.95,1.95A1.95,1.95,0,0,1,19.5,0h-3.25A1.95,1.95,0,0,1,14.3,1.95,1.95,1.95,0,0,1,12.349,0H9.1a1.95,1.95,0,0,1-1.95,1.95A1.95,1.95,0,0,1,5.2,0H1.95A1.95,1.95,0,0,1,0,1.95v49.4A1.95,1.95,0,0,1,1.95,53.3H5.2a1.95,1.95,0,0,1,3.9,0h3.25a1.95,1.95,0,0,1,3.9,0H19.5a1.95,1.95,0,0,1,3.9,0h3.25a5.849,5.849,0,0,1,11.7,0H41.6a1.95,1.95,0,0,1,3.9,0h3.25a1.95,1.95,0,0,1,3.9,0h3.25a1.95,1.95,0,0,1,3.9,0h3.25a1.95,1.95,0,0,1,1.95-1.95V1.95A1.95,1.95,0,0,1,63.044,0Z" fill="#ebeced"/>
  <path id="패스_167" data-name="패스 167" d="M59.4,15H12.6A2.6,2.6,0,0,0,10,17.6V46.2a2.6,2.6,0,0,0,2.6,2.6H59.4A2.6,2.6,0,0,0,62,46.2V17.6A2.6,2.6,0,0,0,59.4,15Zm1.3,30.547a1.95,1.95,0,0,1-1.95,1.95H13.25a1.95,1.95,0,0,1-1.95-1.95V18.25a1.95,1.95,0,0,1,1.95-1.95h45.5a1.95,1.95,0,0,1,1.95,1.95Z" transform="translate(-3.501 -5.251)" fill="#bdc2c7"/>
  <path id="패스_168" data-name="패스 168" d="M63.044,84h-3.25a1.95,1.95,0,0,1-3.9,0h-3.25a1.95,1.95,0,0,1-3.9,0H45.5a1.95,1.95,0,0,1-3.9,0h-3.25a5.849,5.849,0,0,1-11.7,0H23.4a1.95,1.95,0,0,1-3.9,0h-3.25a1.95,1.95,0,0,1-3.9,0H9.1a1.95,1.95,0,0,1-3.9,0H1.95A1.95,1.95,0,0,1,0,85.95V94.4H64.994V85.95A1.95,1.95,0,0,1,63.044,84Z" transform="translate(0 -29.405)" fill="#ebeced"/>
  <path id="패스_169" data-name="패스 169" d="M63.044,84h-3.25a1.95,1.95,0,0,1-3.9,0h-3.25a1.95,1.95,0,0,1-3.9,0H45.5a1.95,1.95,0,0,1-3.9,0h-3.25a5.849,5.849,0,0,1-11.7,0H23.4a1.95,1.95,0,0,1-3.9,0h-3.25a1.95,1.95,0,0,1-3.9,0H9.1a1.95,1.95,0,0,1-3.9,0H1.95A1.95,1.95,0,0,1,0,85.95V94.4H64.994V85.95A1.95,1.95,0,0,1,63.044,84Z" transform="translate(0 -29.405)" fill="#ebeced"/>
  <path id="패스_170" data-name="패스 170" d="M34.394,49.755a1.542,1.542,0,0,0-.291-.37,1.385,1.385,0,0,0-.476-.286,2.156,2.156,0,0,0-.746-.11,1.823,1.823,0,0,0-1.408.5,2.608,2.608,0,0,0-.462,1.762,4.471,4.471,0,0,0,.09.935,1.932,1.932,0,0,0,.253.667,1.476,1.476,0,0,0,.574.521,2.029,2.029,0,0,0,.918.177A1.667,1.667,0,0,0,34.275,53a2.97,2.97,0,0,0,.415-1.759,4.132,4.132,0,0,0-.126-1.031A1.9,1.9,0,0,0,34.394,49.755Zm-1.013,2.417a.814.814,0,0,1-.205.415.465.465,0,0,1-.33.131.477.477,0,0,1-.441-.309,2.936,2.936,0,0,1-.152-1.152,3.194,3.194,0,0,1,.138-1.143.465.465,0,0,1,.448-.309.486.486,0,0,1,.456.3,3.03,3.03,0,0,1,.152,1.182A4.239,4.239,0,0,1,33.381,52.172Zm4.778-1.066a1.406,1.406,0,0,0,.406-.374.99.99,0,0,0,.172-.557,1.038,1.038,0,0,0-.432-.849,2.156,2.156,0,0,0-1.334-.338,1.983,1.983,0,0,0-1.1.271,1.054,1.054,0,0,0-.531.907,1,1,0,0,0,.184.6,1.2,1.2,0,0,0,.43.343,1.162,1.162,0,0,0-.568.417,1.142,1.142,0,0,0-.185.659,1.352,1.352,0,0,0,.2.719,1.229,1.229,0,0,0,.574.488,2.821,2.821,0,0,0,1.093.166,3.409,3.409,0,0,0,.717-.073,1.579,1.579,0,0,0,.562-.23,1.252,1.252,0,0,0,.38-.445,1.287,1.287,0,0,0,.155-.619,1.142,1.142,0,0,0-.18-.627,1.234,1.234,0,0,0-.543-.456Zm-1.5-1.23a.515.515,0,0,1,.883.376.485.485,0,0,1-.138.358.476.476,0,0,1-.353.138.534.534,0,0,1-.389-.14.537.537,0,0,1,0-.732Zm.788,2.738a.544.544,0,0,1-.4.188.567.567,0,0,1-.415-.185.653.653,0,0,1-.181-.476.676.676,0,0,1,.174-.488.545.545,0,0,1,.407-.18.561.561,0,0,1,.416.187.729.729,0,0,1,0,.955Zm4.9-1.507a1.423,1.423,0,0,0,.406-.374.991.991,0,0,0,.172-.557,1.04,1.04,0,0,0-.432-.849,2.155,2.155,0,0,0-1.334-.338,1.98,1.98,0,0,0-1.1.271,1.054,1.054,0,0,0-.531.907,1.008,1.008,0,0,0,.184.6,1.2,1.2,0,0,0,.43.343,1.162,1.162,0,0,0-.568.417,1.141,1.141,0,0,0-.184.659,1.352,1.352,0,0,0,.2.719,1.226,1.226,0,0,0,.574.488,2.819,2.819,0,0,0,1.093.166,3.413,3.413,0,0,0,.717-.073,1.571,1.571,0,0,0,.562-.23,1.246,1.246,0,0,0,.38-.445,1.287,1.287,0,0,0,.155-.619,1.147,1.147,0,0,0-.179-.627,1.253,1.253,0,0,0-.546-.456Zm-1.5-1.23a.515.515,0,0,1,.883.376.487.487,0,0,1-.138.358.476.476,0,0,1-.353.138.532.532,0,0,1-.388-.14.489.489,0,0,1-.146-.369.482.482,0,0,1,.142-.364Zm.787,2.738a.544.544,0,0,1-.4.188.568.568,0,0,1-.415-.185.653.653,0,0,1-.181-.476.676.676,0,0,1,.174-.488.544.544,0,0,1,.407-.18.562.562,0,0,1,.416.187.729.729,0,0,1,0,.955Zm5.189-3.625H45.742l-2.277,2.84v1.03h2.277v.622h1.091v-.826H47.4V51.7h-.565Zm-1.091,2.9h-1.2l1.2-1.573Zm4.326-1.351a1.308,1.308,0,0,0-.547.107,1.562,1.562,0,0,0-.461.33,2.678,2.678,0,0,1,.181-.929.521.521,0,0,1,.473-.3.407.407,0,0,1,.285.105.647.647,0,0,1,.164.361l1.243-.15a1.572,1.572,0,0,0-.312-.59,1.3,1.3,0,0,0-.518-.357,2.37,2.37,0,0,0-.848-.122,1.84,1.84,0,0,0-1.422.555,2.531,2.531,0,0,0-.513,1.752,2.99,2.99,0,0,0,.244,1.312,1.588,1.588,0,0,0,.653.721,2.242,2.242,0,0,0,1.083.227,2.1,2.1,0,0,0,.935-.185,1.36,1.36,0,0,0,.582-.547,1.549,1.549,0,0,0,.21-.8,1.461,1.461,0,0,0-.416-1.07A1.37,1.37,0,0,0,50.068,50.534Zm.083,2.073a.533.533,0,0,1-.411.184.586.586,0,0,1-.451-.2.807.807,0,0,1-.183-.562.767.767,0,0,1,.176-.542.573.573,0,0,1,.437-.19.548.548,0,0,1,.427.2.837.837,0,0,1,.172.569A.8.8,0,0,1,50.151,52.606Zm5.129-1.65a1.369,1.369,0,0,0-1.017-.421,1.313,1.313,0,0,0-.547.107,1.579,1.579,0,0,0-.461.33,2.729,2.729,0,0,1,.181-.928.521.521,0,0,1,.474-.3.409.409,0,0,1,.285.105.649.649,0,0,1,.164.361l1.243-.15a1.582,1.582,0,0,0-.313-.59,1.308,1.308,0,0,0-.518-.357,2.371,2.371,0,0,0-.849-.122,1.84,1.84,0,0,0-1.422.556,2.531,2.531,0,0,0-.512,1.752,3,3,0,0,0,.244,1.312,1.593,1.593,0,0,0,.653.721,2.25,2.25,0,0,0,1.083.226,2.087,2.087,0,0,0,.935-.185,1.354,1.354,0,0,0,.582-.546,1.56,1.56,0,0,0,.211-.8A1.465,1.465,0,0,0,55.28,50.956Zm-.935,1.65a.534.534,0,0,1-.412.184.586.586,0,0,1-.45-.2.808.808,0,0,1-.184-.562.773.773,0,0,1,.176-.542.575.575,0,0,1,.437-.19.549.549,0,0,1,.427.2.837.837,0,0,1,.172.569A.792.792,0,0,1,54.344,52.606Z" transform="translate(-10.856 -17.149)" fill="#c13e30"/>
  <path id="패스_171" data-name="패스 171" d="M19.65,40a.65.65,0,1,0,.65.65A.65.65,0,0,0,19.65,40Zm6.5,0a.65.65,0,1,0,.65.65A.65.65,0,0,0,26.149,40Zm6.5,0a.65.65,0,1,0,.65.65A.65.65,0,0,0,32.649,40Zm6.5,0a.65.65,0,1,0,.65.65A.65.65,0,0,0,39.148,40Zm6.5,0a.65.65,0,1,0,.65.65A.65.65,0,0,0,45.648,40Zm6.5,0a.65.65,0,1,0,.65.65A.65.65,0,0,0,52.147,40Zm6.5,0a.65.65,0,1,0,.65.65A.65.65,0,0,0,58.646,40ZM22.9,40a.65.65,0,1,0,.65.65A.65.65,0,0,0,22.9,40Zm6.5,0a.65.65,0,1,0,.65.65A.65.65,0,0,0,29.4,40Zm6.5,0a.65.65,0,1,0,.65.65A.65.65,0,0,0,35.9,40Zm6.5,0a.65.65,0,1,0,.65.65A.65.65,0,0,0,42.4,40Zm6.5,0a.65.65,0,1,0,.65.65A.65.65,0,0,0,48.9,40Zm6.5,0a.65.65,0,1,0,.65.65A.65.65,0,0,0,55.4,40Z" transform="translate(-6.651 -14.002)" fill="#5f6f7f"/>
  <path id="패스_172" data-name="패스 172" d="M20.745,26.064l-1.753,4.416h1.471l.227-.729h1.637l.233.729H24.07l-1.752-4.416H20.745ZM21,28.8l.51-1.587.515,1.587Zm7.351-2.1a1.653,1.653,0,0,0-.644-.467,2.691,2.691,0,0,0-1.023-.163H24.547v4.416h2.141a3.531,3.531,0,0,0,.859-.12,1.575,1.575,0,0,0,.649-.351,1.821,1.821,0,0,0,.473-.654,2.82,2.82,0,0,0,.17-1.1,3.129,3.129,0,0,0-.114-.855,1.9,1.9,0,0,0-.369-.708ZM27.283,29.05a.66.66,0,0,1-.3.332,1.564,1.564,0,0,1-.643.095h-.353V27.065h.359a1.059,1.059,0,0,1,.8.259,1.429,1.429,0,0,1,.242.961A1.974,1.974,0,0,1,27.283,29.05Zm4.923-.3-.731-2.687h-1.9v4.416h1.18V27.112l.908,3.367h1.069l.909-3.367v3.367h1.18V26.064H32.932Zm3.6,1.729h1.444V26.064H35.8Zm2.151-3.325h1.47v3.325h1.442V27.154h1.47V26.064H37.954Zm8.783-1.165a2.479,2.479,0,0,0-1.772.6,2.208,2.208,0,0,0-.636,1.684,2.4,2.4,0,0,0,.32,1.289,1.932,1.932,0,0,0,.838.753,3.129,3.129,0,0,0,1.306.238,2.748,2.748,0,0,0,1.3-.276,1.919,1.919,0,0,0,.8-.771,2.59,2.59,0,0,0,.276-1.269,2.162,2.162,0,0,0-.631-1.659A2.519,2.519,0,0,0,46.737,25.989Zm.729,3.259a1.034,1.034,0,0,1-1.433-.007,1.893,1.893,0,0,1,0-1.928.9.9,0,0,1,.7-.291.931.931,0,0,1,.721.287,1.314,1.314,0,0,1,.265.911,1.571,1.571,0,0,1-.253,1.028Zm5.584-.742-1.757-2.443H49.947v4.416H51.3V28.055l1.747,2.424h1.358V26.064H53.05Zm3.757.973v-.871h2.242v-.9H56.806v-.7h2.418v-.943H55.361v4.416h3.932v-1H56.806ZM58.319,43.5v-.068l.016.055,1.609-1.231h-1.95v-.006h-.047l-.613-1.95-.61,1.955h-1.98l1.6,1.225.029-.094V43.5l-.029-.023-.631,2.018,1.632-1.25-.063-.047H57.4l-.062.047,1.629,1.25-.634-2.012Zm-.325-.92v-.181l.057.18Zm-35.426.92v-.068l.017.055,1.608-1.232h-1.95v-.005h-.047l-.613-1.95-.611,1.955H18.993l1.6,1.225.029-.095V43.5l-.029-.023-.631,2.018,1.632-1.25-.062-.047h.124l-.062.047,1.628,1.25-.633-2.012-.017.014Zm-.325-.92v-.181l.057.18Z" transform="translate(-6.648 -9.098)" fill="#35495e"/>
</svg>
