<svg xmlns="http://www.w3.org/2000/svg" width="64.994" height="56.542" viewBox="0 0 64.994 56.542">
  <g id="building-svgrepo-com" transform="translate(0 -33.29)">
    <rect id="사각형_150" data-name="사각형 150" width="13.795" height="42.042" transform="translate(6.509 47.79)" fill="#ffc473"/>
    <rect id="사각형_151" data-name="사각형 151" width="13.795" height="42.042" transform="translate(44.691 47.652)" fill="#ffa91f"/>
    <rect id="사각형_152" data-name="사각형 152" width="28.367" height="54.553" transform="translate(18.314 33.29)" fill="#aeadb3"/>
    <rect id="사각형_153" data-name="사각형 153" width="14.271" height="54.553" transform="translate(32.409 33.29)" fill="#8b8892"/>
    <rect id="사각형_154" data-name="사각형 154" width="6.499" height="12.638" transform="translate(29.247 75.205)" fill="#fff"/>
    <rect id="사각형_155" data-name="사각형 155" width="3.337" height="12.638" transform="translate(32.409 75.205)" fill="#c8c6cd"/>
    <g id="그룹_201" data-name="그룹 201" transform="translate(23.887 38.597)">
      <rect id="사각형_156" data-name="사각형 156" width="4.087" height="4.087" fill="#fff"/>
      <rect id="사각형_157" data-name="사각형 157" width="4.085" height="4.087" transform="translate(6.567)" fill="#fff"/>
      <rect id="사각형_158" data-name="사각형 158" width="4.085" height="4.087" transform="translate(13.133)" fill="#fff"/>
      <rect id="사각형_159" data-name="사각형 159" width="4.087" height="4.087" transform="translate(0 6.433)" fill="#fff"/>
      <rect id="사각형_160" data-name="사각형 160" width="4.085" height="4.087" transform="translate(6.567 6.433)" fill="#fff"/>
      <rect id="사각형_161" data-name="사각형 161" width="4.085" height="4.087" transform="translate(13.133 6.433)" fill="#fff"/>
      <rect id="사각형_162" data-name="사각형 162" width="4.087" height="4.087" transform="translate(0 12.866)" fill="#fff"/>
      <rect id="사각형_163" data-name="사각형 163" width="4.085" height="4.087" transform="translate(6.567 12.866)" fill="#fff"/>
      <rect id="사각형_164" data-name="사각형 164" width="4.085" height="4.087" transform="translate(13.133 12.866)" fill="#fff"/>
      <rect id="사각형_165" data-name="사각형 165" width="4.087" height="4.087" transform="translate(0 19.299)" fill="#fff"/>
      <rect id="사각형_166" data-name="사각형 166" width="4.085" height="4.087" transform="translate(6.567 19.299)" fill="#fff"/>
      <rect id="사각형_167" data-name="사각형 167" width="4.085" height="4.087" transform="translate(13.133 19.299)" fill="#fff"/>
    </g>
    <g id="그룹_202" data-name="그룹 202" transform="translate(0 67.178)">
      <rect id="사각형_168" data-name="사각형 168" width="28.367" height="3.979" transform="translate(18.314 0)" fill="#57555c"/>
      <rect id="사각형_169" data-name="사각형 169" width="64.994" height="3.979" transform="translate(0 18.675)" fill="#57555c"/>
    </g>
    <rect id="사각형_170" data-name="사각형 170" width="14.271" height="3.979" transform="translate(32.409 67.178)" fill="#2b292c"/>
    <g id="그룹_203" data-name="그룹 203" transform="translate(32.409 38.597)">
      <rect id="사각형_171" data-name="사각형 171" width="2.13" height="4.087" fill="#c8c6cd"/>
      <rect id="사각형_172" data-name="사각형 172" width="2.13" height="4.087" transform="translate(0 6.433)" fill="#c8c6cd"/>
      <rect id="사각형_173" data-name="사각형 173" width="2.13" height="4.087" transform="translate(0 12.866)" fill="#c8c6cd"/>
      <rect id="사각형_174" data-name="사각형 174" width="2.13" height="4.087" transform="translate(0 19.299)" fill="#c8c6cd"/>
      <rect id="사각형_175" data-name="사각형 175" width="4.085" height="4.087" transform="translate(4.611)" fill="#c8c6cd"/>
      <rect id="사각형_176" data-name="사각형 176" width="4.085" height="4.087" transform="translate(4.611 6.433)" fill="#c8c6cd"/>
      <rect id="사각형_177" data-name="사각형 177" width="4.085" height="4.087" transform="translate(4.611 12.866)" fill="#c8c6cd"/>
      <rect id="사각형_178" data-name="사각형 178" width="4.085" height="4.087" transform="translate(4.611 19.299)" fill="#c8c6cd"/>
    </g>
    <rect id="사각형_179" data-name="사각형 179" width="32.585" height="3.979" transform="translate(32.409 85.853)" fill="#2b292c"/>
  </g>
</svg>
