<svg version="1.1" id="Capa_1" xmlns="http://www.w3.org/2000/svg" xmlns:xlink="http://www.w3.org/1999/xlink" 
	 viewBox="0 0 349.325 349.325" xml:space="preserve">
<g id="XMLID_680_">
	<g id="XMLID_679_">
		<g id="XMLID_624_">
			<path id="XMLID_584_" style="fill:#FFFFFF;" d="M92.116,86.951c-11.187,0-21.426,6.281-26.495,16.254l-44.786,88.112
				c-4.075,8.017-3.6,17.591,1.248,25.165l16.592,25.926c4.169,6.515,11.371,10.455,19.105,10.455h268.861
				c12.527,0,22.683-10.155,22.683-22.684V109.634c0-12.527-10.155-22.683-22.683-22.683H92.116z"/>
		</g>
		<g id="XMLID_640_">
			<path id="XMLID_721_" style="fill:#9EA647;" d="M343.299,213.08H20.267c0.518,1.168,1.116,2.308,1.816,3.402l16.592,25.926
				c4.169,6.515,11.371,10.455,19.105,10.455h268.861c12.527,0,22.683-10.155,22.683-22.684v-17.72
				C347.344,212.862,345.328,213.08,343.299,213.08z"/>
			<path id="XMLID_716_" style="fill:#9EA647;" d="M349.325,120.512v-10.878c0-12.527-10.155-22.683-22.683-22.683H92.116
				c-11.187,0-21.426,6.281-26.495,16.254l-8.796,17.307H349.325z"/>
		</g>
		<g id="XMLID_666_">
			<path id="XMLID_719_" style="fill:#E88F27;" d="M349.325,120.512v-10.878c0-12.527-10.155-22.683-22.683-22.683H92.116
				c-11.187,0-21.426,6.281-26.495,16.254l-8.796,17.307H349.325z"/>
			<path id="XMLID_560_" style="fill:#FFFFFF;" d="M279.461,86.951H136.879c-6.443,0-11.665-5.224-11.665-11.666
				c0-6.443,5.223-11.666,11.665-11.666h130.917c6.442,0,11.665,5.223,11.665,11.666V86.951z"/>
			
				<line id="XMLID_687_" style="fill:none;stroke:#302F2A;stroke-width:9.6073;stroke-linecap:round;stroke-miterlimit:10;" x1="18.082" y1="240.606" x2="18.082" y2="277.491"/>
			<circle id="XMLID_686_" style="fill:#302F2A;" cx="194.43" cy="260.429" r="25.276"/>
			<circle id="XMLID_685_" style="fill:#FFFFFF;" cx="194.429" cy="260.429" r="11.666"/>
			<path id="XMLID_722_" style="opacity:0.41;fill:#302F2A;" d="M159.714,252.863h69.431c-3.755-15.696-17.869-27.368-34.716-27.368
				C177.583,225.495,163.468,237.167,159.714,252.863z"/>
			<path id="XMLID_557_" style="fill:#9EA647;" d="M194.429,230.617c-14.823,0-27.064,11.06-28.92,25.378
				c-0.125,0.957,0.17,1.922,0.808,2.646c0.638,0.726,1.557,1.14,2.522,1.14h51.18c0.965,0,1.883-0.416,2.52-1.141
				c0.637-0.725,0.935-1.69,0.811-2.646C221.494,241.676,209.252,230.617,194.429,230.617z"/>
			<path id="XMLID_554_" style="fill:#9EA647;" d="M272.202,222.726c0,7.696-6.239,13.935-13.935,13.935h-25.924
				c-7.695,0-13.934-6.238-13.934-13.935v-99.158c0-7.696,6.238-13.935,13.934-13.935h25.924c7.695,0,13.935,6.238,13.935,13.935
				V222.726z"/>
			<g id="XMLID_692_">
				<g>
					<path style="fill:#8F933D;" d="M258.267,109.634c7.695,0,13.934,6.238,13.934,13.935v99.158
						c0,7.696-6.239,13.935-13.934,13.935h-25.924c-7.695,0-13.934-6.238-13.934-13.935v-99.158c0-7.696,6.238-13.935,13.934-13.935
						H258.267 M258.267,106.751h-25.924c-9.272,0-16.816,7.544-16.816,16.817v99.158c0,9.273,7.544,16.817,16.816,16.817h25.924
						c9.273,0,16.817-7.544,16.817-16.817v-99.158C275.084,114.295,267.54,106.751,258.267,106.751L258.267,106.751z"/>
				</g>
			</g>
			
				<line id="XMLID_672_" style="fill:none;stroke:#8F933D;stroke-width:2.8822;stroke-miterlimit:10;" x1="218.41" y1="173.147" x2="272.202" y2="173.147"/>
			<path id="XMLID_643_" style="fill:#9EA647;" d="M267.796,63.619H136.879c-6.443,0-11.665,5.223-11.665,11.666h154.248
				C279.461,68.842,274.239,63.619,267.796,63.619z"/>
			<g id="XMLID_720_">
				<path id="XMLID_581_" style="fill:#738691;" d="M120.384,174.238c0,7.358-5.964,13.323-13.323,13.323H66.353
					c-7.358,0-13.323-5.965-13.323-13.323v-20.724c0-7.358,5.965-13.323,13.323-13.323h40.708c7.358,0,13.323,5.965,13.323,13.323
					V174.238z"/>
				<path id="XMLID_578_" style="fill:#95A9BA;" d="M116.81,172.683c0,6.254-5.069,11.323-11.323,11.323H67.926
					c-6.254,0-11.324-5.069-11.324-11.323v-17.614c0-6.254,5.07-11.323,11.324-11.323h37.561c6.254,0,11.323,5.069,11.323,11.323
					V172.683z"/>
				<polygon id="XMLID_553_" style="opacity:0.29;fill:#FFFFFF;" points="66.243,184.007 91.907,144.002 101.431,143.746 
					76.032,184.007 				"/>
				<polygon id="XMLID_567_" style="opacity:0.29;fill:#FFFFFF;" points="80.265,184.007 105.487,143.746 83.837,184.007 				"/>
			</g>
			<g id="XMLID_550_">
				<path id="XMLID_717_" style="fill:#738691;" d="M201.974,174.238c0,7.358-5.965,13.323-13.323,13.323h-40.708
					c-7.358,0-13.323-5.965-13.323-13.323v-20.724c0-7.358,5.965-13.323,13.323-13.323h40.708c7.358,0,13.323,5.965,13.323,13.323
					V174.238z"/>
				<path id="XMLID_681_" style="fill:#95A9BA;" d="M198.4,172.683c0,6.254-5.069,11.323-11.323,11.323h-37.561
					c-6.254,0-11.324-5.069-11.324-11.323v-17.614c0-6.254,5.07-11.323,11.324-11.323h37.561c6.254,0,11.323,5.069,11.323,11.323
					V172.683z"/>
				<polygon id="XMLID_576_" style="opacity:0.29;fill:#FFFFFF;" points="147.832,184.007 173.497,144.002 183.021,143.746 
					157.622,184.007 				"/>
				<polygon id="XMLID_573_" style="opacity:0.29;fill:#FFFFFF;" points="161.855,184.007 187.077,143.746 165.426,184.007 				"/>
			</g>
			<g id="XMLID_665_">
				<path id="XMLID_566_" style="fill:#738691;" d="M329.234,177.947c0,6.253-5.068,11.321-11.321,11.321h-11.058
					c-6.253,0-11.322-5.068-11.322-11.321V146.88c0-6.253,5.069-11.321,11.322-11.321h11.058c6.253,0,11.321,5.068,11.321,11.321
					V177.947z"/>
				<g id="XMLID_725_">
					<path id="XMLID_728_" style="opacity:0.41;fill:#302F2A;" d="M326.642,86.951h-47.181V75.285c0-0.403-0.02-0.801-0.06-1.193
						c-0.598-5.882-5.565-10.473-11.605-10.473h-73.367v222.087l0,0c13.96,0,25.276-11.316,25.276-25.276
						c0-0.218-0.012-0.433-0.017-0.648h0.33c0.965,0,1.883-0.416,2.52-1.141c0.637-0.725,0.935-1.69,0.811-2.646
						c-0.138-1.064-0.34-2.107-0.589-3.132h6.384h97.497c12.527,0,22.683-10.155,22.683-22.684v-16.01v-1.71v-0.882v-89.631v-1.436
						v-1.156v-9.722C349.325,97.106,339.169,86.951,326.642,86.951z"/>
				</g>
				<path id="XMLID_563_" style="fill:#95A9BA;" d="M325.921,176.838c0,5.023-4.072,9.096-9.096,9.096h-8.884
					c-5.022,0-9.095-4.072-9.095-9.096V147.99c0-5.023,4.072-9.096,9.095-9.096h8.884c5.023,0,9.096,4.072,9.096,9.096V176.838z"/>
				
					<line id="XMLID_668_" style="fill:none;stroke:#DCF7F6;stroke-width:4.0315;stroke-miterlimit:10;" x1="298.847" y1="162.413" x2="325.921" y2="162.413"/>
				<polygon id="XMLID_569_" style="opacity:0.29;fill:#FFFFFF;" points="299.345,160.322 313.004,139.031 318.073,138.894 
					304.555,160.322 				"/>
				<polygon id="XMLID_564_" style="opacity:0.29;fill:#FFFFFF;" points="306.808,160.322 320.231,138.894 308.71,160.322 				"/>
				<polygon id="XMLID_664_" style="opacity:0.29;fill:#FFFFFF;" points="304.906,186.269 318.564,164.978 323.633,164.842 
					310.116,186.269 				"/>
				<polygon id="XMLID_663_" style="opacity:0.29;fill:#FFFFFF;" points="312.369,186.269 325.792,164.842 314.269,186.269 				"/>
			</g>
			<g id="XMLID_667_">
				<path id="XMLID_551_" style="fill:#8F933D;" d="M263.776,140.472c0,4.623-3.748,8.371-8.371,8.371h-20.199
					c-4.623,0-8.371-3.748-8.371-8.371v-9.829c0-4.624,3.748-8.372,8.371-8.372h20.199c4.623,0,8.371,3.748,8.371,8.372V140.472z"/>
				<path id="XMLID_548_" style="fill:#95A9BA;" d="M260.746,139.321c0,3.54-2.87,6.41-6.41,6.41h-18.059
					c-3.541,0-6.411-2.87-6.411-6.41v-7.526c0-3.54,2.87-6.41,6.411-6.41h18.059c3.54,0,6.41,2.87,6.41,6.41V139.321z"/>
				<polygon id="XMLID_724_" style="opacity:0.29;fill:#FFFFFF;" points="235.789,145.731 248.727,125.562 253.529,125.433 
					240.724,145.731 				"/>
				<polygon id="XMLID_723_" style="opacity:0.29;fill:#FFFFFF;" points="242.858,145.731 255.574,125.433 244.659,145.731 				"/>
			</g>
			<path id="XMLID_587_" style="fill:#9EA647;" d="M0,240.606c0-6.77,5.488-12.258,12.257-12.258h80.42v24.516h-80.42
				C5.488,252.864,0,247.377,0,240.606z"/>
		</g>
	</g>
</g>
</svg>