<svg xmlns="http://www.w3.org/2000/svg" width="15.242" height="25.403" viewBox="0 0 15.242 25.403">
  <path id="primary" d="M16.161,7.081h3.81a1.27,1.27,0,0,0,1.27-1.27V3.27A1.27,1.27,0,0,0,19.972,2h-3.81A6.351,6.351,0,0,0,9.81,8.351v3.81H7.27A1.27,1.27,0,0,0,6,13.431v2.54a1.27,1.27,0,0,0,1.27,1.27H9.81v8.891a1.27,1.27,0,0,0,1.27,1.27h2.54a1.27,1.27,0,0,0,1.27-1.27V17.242h2.82a1.27,1.27,0,0,0,1.27-.965l.635-2.54a1.27,1.27,0,0,0-1.27-1.575H14.891V8.351A1.27,1.27,0,0,1,16.161,7.081Z" transform="translate(-6 -2)" fill="#575757"/>
</svg>
