<svg id="Layer_2" xmlns="http://www.w3.org/2000/svg" width="25.806" height="23.949" viewBox="0 0 25.806 23.949">
  <g id="그룹_184" data-name="그룹 184" transform="translate(0 0)">
    <g id="그룹_183" data-name="그룹 183">
      <path id="패스_125" data-name="패스 125" d="M17.224,7.555C4.787,7.49-.979,20.62,10.331,26.453c-.2.685-1.277,4.409-1.32,4.7a.3.3,0,0,0,.426.322c.409-.057,4.734-3.1,5.483-3.623C32.854,30,36.386,8.379,17.224,7.555Z" transform="translate(-4.262 -7.555)" fill="#575757"/>
      <path id="패스_126" data-name="패스 126" d="M18.8,38.9a.75.75,0,0,1-1.5,0V34.45H16.138a.733.733,0,0,1,0-1.466h3.833a.733.733,0,0,1,0,1.466H18.8Z" transform="translate(-12.266 -25.81)" fill="#575757"/>
      <path id="패스_127" data-name="패스 127" d="M35.737,39.53c-.336.177-.986.134-1.1-.227l-.371-.97H31.985l-.371.971c-.112.361-.763.4-1.1.227-.207-.1-.4-.357-.177-1.063l1.791-4.713a1.048,1.048,0,0,1,2,0l1.79,4.711C36.142,39.174,35.944,39.436,35.737,39.53Z" transform="translate(-22.909 -25.842)" fill="#575757"/>
      <path id="패스_128" data-name="패스 128" d="M55.206,39.524H52.8a.7.7,0,0,1-.717-.686V33.754a.764.764,0,0,1,1.528,0v4.4h1.591A.687.687,0,1,1,55.206,39.524Z" transform="translate(-38.595 -25.832)" fill="#575757"/>
      <path id="패스_129" data-name="패스 129" d="M71.569,38.96a.753.753,0,0,1-1.339.347l-1.755-2.326-.26.26v1.633a.749.749,0,0,1-1.5,0V33.753a.749.749,0,0,1,1.5,0v1.609L70.3,33.274a.7.7,0,0,1,.985.985l-1.706,1.706,1.842,2.441A.744.744,0,0,1,71.569,38.96Z" transform="translate(-49.098 -25.831)" fill="#575757"/>
      <path id="패스_130" data-name="패스 130" d="M37.829,41.726h1.5L38.577,39.6Z" transform="translate(-28.359 -30.561)" fill="#575757"/>
    </g>
  </g>
</svg>
