<svg xmlns="http://www.w3.org/2000/svg" width="24.584" height="19.982" viewBox="0 0 24.584 19.982">
  <path id="twitter-svgrepo-com" d="M-246.416,298.959a10.12,10.12,0,0,1-2.9.8,5.018,5.018,0,0,0,2.215-2.79,10.28,10.28,0,0,1-3.2,1.227,5.051,5.051,0,0,0-3.682-1.592,5.05,5.05,0,0,0-5.043,5.043,4.606,4.606,0,0,0,.134,1.151,14.29,14.29,0,0,1-10.394-5.273,5.057,5.057,0,0,0-.681,2.541,5.063,5.063,0,0,0,2.244,4.2,5.107,5.107,0,0,1-2.282-.633v.057a5.042,5.042,0,0,0,4.046,4.948,5.082,5.082,0,0,1-1.333.182,5.138,5.138,0,0,1-.949-.086,5.04,5.04,0,0,0,4.708,3.5,10.123,10.123,0,0,1-6.261,2.157,10.2,10.2,0,0,1-1.208-.067,14.289,14.289,0,0,0,7.728,2.263,14.256,14.256,0,0,0,14.354-14.354c0-.221,0-.441-.01-.652a10.188,10.188,0,0,0,2.512-2.618" transform="translate(271 -296.6)" fill="#575757"/>
</svg>
